<svg width="27px" height="27px" viewBox="0 0 48 49" version="1.1" xmlns="http://www.w3.org/2000/svg" role="img" aria-labelledby="4d0d1825-b3e2-495a-a03d-89a4d872049b"><title id="4d0d1825-b3e2-495a-a03d-89a4d872049b">Facebook</title><g stroke="none" stroke-width="1" fill="none" fill-rule="evenodd"><g><circle fill="#FFFFFF" cx="24" cy="24" r="24"></circle><path d="M48,24 C48,10.7471924 37.2528076,0 24,0 C10.7471924,0 0,10.7471924 0,24 C0,37.2528076 10.7471924,48 24,48 C24.1409912,48 24.28125,47.9970703 24.421875,47.9945068 L24.421875,29.3115234 L19.265625,29.3115234 L19.265625,23.3023682 L24.421875,23.3023682 L24.421875,18.8803711 C24.421875,13.7519531 27.5526123,10.9606933 32.1273193,10.9606933 C34.3179932,10.9606933 36.2010498,11.1240234 36.75,11.1968994 L36.75,16.5567627 L33.5954589,16.5567627 C31.1066895,16.5567627 30.6247558,17.739624 30.6247558,19.4750977 L30.6247558,23.3023682 L36.5756836,23.3023682 L35.8000489,29.3115234 L30.6247558,29.3115234 L30.6247558,47.0727539 C40.6563721,44.1968994 48,34.9548339 48,24 Z" fill="#4367B2" fill-rule="nonzero"></path></g></g></svg>