<svg xmlns="http://www.w3.org/2000/svg" xmlns:xlink="http://www.w3.org/1999/xlink" width="27px" height="27px" viewBox="0 0 48 48" role="img" aria-labelledby="7b6dc74d-740c-463f-8131-25ae141d47f8"><title id="7b6dc74d-740c-463f-8131-25ae141d47f8">TikTok</title><defs><circle id="tiktok-circle" cx="24" cy="24" r="24"></circle><mask id="tiktok-mask" fill="#fff"><use fill-rule="evenodd" xlink:href="#tiktok-circle"></use></mask></defs><g fill="none" fill-rule="evenodd"><use fill="#000" xlink:href="#tiktok-circle"></use><g fill-rule="nonzero" mask="url(#tiktok-mask)"><path fill="#ee1d52" d="M19.732 5.83c.404.093.748.118.97.093V9.25s-1.176-.049-2.05-.28c-1.216-.326-1.997-.826-1.997-.826s-.541-.358-.582-.382v6.871c0 .382-.1 1.338-.404 2.135-.396 1.04-1.01 1.728-1.124 1.866 0 0-.748.927-2.061 1.549-1.185.56-2.228.549-2.54.56l-.026.002c-.23.003-1.888-.007-3.393-1.03a6.793 6.793 0 01-.749-.602l-.221-.215c1.62 1.106 3.42 1.029 3.42 1.029.311-.013 1.354 0 2.538-.561 1.314-.622 2.062-1.55 2.062-1.55.113-.138.728-.825 1.124-1.866a6.988 6.988 0 00.404-2.134V6.948c.045.024.582.382.582.382s.78.5 1.997.825c.873.232 2.05.28 2.05.28zm-9.94 2.582c.323-.009.646.012.965.06v3.395s-1.33-.443-2.397.342c-.744.581-1.14 1.146-1.257 2.159-.004.549.093 1.268.546 1.886a4.536 4.536 0 01-.344-.207c-.99-.7-1.172-1.752-1.168-2.496.117-1.013.513-1.578 1.257-2.16 1.067-.784 2.397-.34 2.397-.34zm6.277-7.172s-.182 1.569 1.156 3.11l.02.02a5.137 5.137 0 01-.986-.837c-.731-.842-1.01-1.696-1.111-2.293z" transform="translate(12 9)"></path><path fill="#fff" d="M19.732 5.826v2.606s-1.177-.049-2.05-.28c-1.217-.326-1.997-.826-1.997-.826s-.541-.358-.582-.382v6.87c0 .383-.1 1.339-.404 2.135-.396 1.041-1.01 1.728-1.124 1.867 0 0-.748.927-2.062 1.549-1.184.56-2.227.548-2.538.56 0 0-1.8.074-3.42-1.028l-.008-.008a6.855 6.855 0 01-.481-.549c-.518-.663-.833-1.443-.914-1.667v-.004c-.13-.386-.396-1.321-.36-2.22.065-1.59.599-2.57.74-2.813A6.63 6.63 0 015.967 9.87a6.015 6.015 0 011.706-1.016 5.668 5.668 0 012.118-.448v2.64s-1.33-.444-2.397.34c-.744.582-1.14 1.147-1.257 2.16-.004.744.178 1.797 1.172 2.5.117.077.23.146.344.207.174.236.384.444.626.614.975.647 1.787.691 2.83.273.695-.28 1.217-.911 1.46-1.614.153-.44.15-.879.15-1.334V1.24h2.425a4.65 4.65 0 001.111 2.293c.295.317.627.601.987.837.105.118.65.687 1.354 1.041.36.183.744.321 1.136.415z" transform="translate(12 9)"></path><path fill="#69c9d0" d="M9.795 7.655v.757a5.672 5.672 0 00-2.122.447 5.96 5.96 0 00-1.706 1.016 6.572 6.572 0 00-1.435 1.769c-.141.244-.675 1.22-.74 2.813-.036.903.235 1.834.36 2.22v.004c.08.22.396 1.004.914 1.667.15.191.31.374.48.55a6.825 6.825 0 01-1.45-1.367 6.526 6.526 0 01-.91-1.659v-.008c-.13-.386-.4-1.321-.36-2.224.065-1.59.598-2.57.74-2.813A6.572 6.572 0 015 9.058a6.015 6.015 0 011.706-1.016c.388-.163.792-.281 1.205-.358a5.975 5.975 0 011.883-.029zM15.103.422c-.004 0-.04.322.045.818h-2.426v12.953c0 .455 0 .894-.15 1.334-.246.699-.768 1.333-1.459 1.614-1.043.423-1.86.374-2.83-.273a2.633 2.633 0 01-.626-.61c.829.444 1.568.435 2.486.065.695-.28 1.217-.914 1.46-1.614.127-.366.146-.731.149-1.107V.422zm2.139 3.948c.125.082.25.155.384.224.857.427 1.693.557 2.106.512v.72a5.143 5.143 0 01-1.136-.415c-.7-.35-1.245-.923-1.354-1.04z" transform="translate(12 9)"></path><path fill="#69c9d0" d="M14.808 3.025a.89.89 0 00.04.272c0 .008.004.013.004.02.134.432.53.724.978.724v1.041c-.505 0-.865.016-1.414-.309a2.043 2.043 0 01-.975-1.76c0-.728.392-1.46 1.063-1.814.486-.256.853-.256 1.33-.256v1.041c-.565 0-1.022.46-1.022 1.029z" transform="translate(12 9) translate(.42 22.78)"></path><path fill="#ee1d52" d="M16.861 3.025a.89.89 0 01-.04.272c0 .008-.004.013-.004.02-.134.432-.53.724-.978.724v1.041c.5 0 .865.016 1.41-.309a2.038 2.038 0 00.979-1.76c0-.728-.392-1.46-1.064-1.814-.485-.256-.853-.256-1.33-.256v1.041c.566 0 1.023.46 1.023 1.029v.012z" transform="translate(12 9) translate(.42 22.78)"></path><path fill="#fff" d="M0 0h3.788l-.352 1.049h-.99v4.013H1.229V1.049H0zm10.042 0v1.049h1.228v4.013h1.221V1.049h.99L13.834 0zm-5.43 1.191a.59.59 0 00.59-.593.59.59 0 10-1.18 0c0 .329.263.593.59.593zm-.59 3.867H5.22V1.61H4.022zM9.52 1.163H8.121L6.917 2.374V0H5.728l-.004 5.054h1.2V3.736l.373-.341L8.46 5.054h1.281L8.057 2.63zm11.473 1.472l1.463-1.472h-1.399l-1.204 1.211V0h-1.189l-.008 5.058h1.2V3.74l.377-.341 1.164 1.659h1.281zm-3.077.374c0 1.142-.933 2.07-2.086 2.07s-2.085-.928-2.085-2.07c0-1.143.933-2.07 2.085-2.07s2.086.927 2.086 2.07zm-1.063 0c0-.57-.457-1.029-1.023-1.029s-1.022.46-1.022 1.029.456 1.028 1.022 1.028 1.023-.46 1.023-1.028z" transform="translate(12 9) translate(.42 22.78)"></path></g></g></svg>