<svg width="27px" height="27px" viewBox="0 0 48 49" version="1.1" xmlns="http://www.w3.org/2000/svg" role="img" aria-labelledby="15396cc1-a2b3-4ecd-afe2-e60dab27908c"><title id="15396cc1-a2b3-4ecd-afe2-e60dab27908c">Pinterest</title><g stroke="none" stroke-width="1" fill="none" fill-rule="evenodd"><g fill-rule="nonzero"><circle fill="#FFFFFF" cx="24" cy="24" r="24"></circle><path d="M24.019715,0 C10.7545061,0 0,10.7368421 0,23.9802632 C0,34.1447368 6.32618008,42.8289474 15.2619094,46.3223684 C15.044447,44.4276316 14.8665232,41.5065789 15.3409867,39.4342105 C15.7759116,37.5592105 18.1482291,27.5131579 18.1482291,27.5131579 C18.1482291,27.5131579 17.4365338,26.0723684 17.4365338,23.9605263 C17.4365338,20.625 19.3739265,18.1381579 21.7857826,18.1381579 C23.8417912,18.1381579 24.8302568,19.6776316 24.8302568,21.5131579 C24.8302568,23.5657895 23.5254822,26.6447368 22.8335562,29.5065789 C22.2602461,31.8947368 24.0394843,33.8486842 26.3920325,33.8486842 C30.6622041,33.8486842 33.94391,29.3486842 33.94391,22.875 C33.94391,17.1315789 29.8121236,13.125 23.9010991,13.125 C17.0609169,13.125 13.0477464,18.2368421 13.0477464,23.5263158 C13.0477464,25.5789474 13.8385189,27.7894737 14.8269846,28.9934211 C15.0246777,29.2302632 15.044447,29.4473684 14.9851391,29.6842105 C14.8072152,30.4342105 14.3920597,32.0723684 14.3129824,32.4078947 C14.2141359,32.8421053 13.9571348,32.9407895 13.5024406,32.7236842 C10.4975051,31.3223684 8.61942035,26.9605263 8.61942035,23.4276316 C8.61942035,15.8684211 14.1152893,8.92105263 24.4941785,8.92105263 C32.8170591,8.92105263 39.3013937,14.8421053 39.3013937,22.7763158 C39.3013937,31.0460526 34.0822952,37.6973684 26.8467267,37.6973684 C24.4151012,37.6973684 22.121861,36.4342105 21.3508578,34.9342105 C21.3508578,34.9342105 20.1449297,39.5131579 19.84839,40.6381579 C19.3146185,42.7302632 17.8516894,45.3355263 16.8632238,46.9342105 C19.1169254,47.625 21.4892429,48 23.9801764,48 C37.2453852,48 48,37.2631579 48,24.0197368 C48.03943,10.7368421 37.2849238,0 24.019715,0 Z" fill="#E60019"></path></g></g></svg>