<svg width="27px" height="27px" viewBox="0 0 48 48" version="1.1" xmlns="http://www.w3.org/2000/svg" role="img" aria-labelledby="66c4e784-e348-4368-984c-cc2642d16557"><title id="66c4e784-e348-4368-984c-cc2642d16557">Twitter</title><g stroke="none" stroke-width="1" fill="none" fill-rule="evenodd"><g><circle fill="#FFFFFF" cx="24" cy="24" r="24"></circle><path d="M24,0 C10.7471924,0 0,10.7471924 0,24 C0,37.2528076 10.7471924,48 24,48 C37.2528076,48 48,37.2528076 48,24 C48,10.7471924 37.2528076,0 24,0 Z M34.9581299,18.7126464 C34.96875,18.9488526 34.973877,19.1861573 34.973877,19.4245605 C34.973877,26.7037354 29.4331055,35.0976563 19.3004151,35.0980224 L19.3007812,35.0980224 L19.3004151,35.0980224 C16.1894531,35.0980224 13.2945557,34.1861573 10.8566895,32.6235352 C11.2877198,32.6744385 11.7264404,32.699707 12.1706543,32.699707 C14.7517089,32.699707 17.1269531,31.8193359 19.0125732,30.3416748 C16.6010742,30.2969971 14.5678711,28.7043458 13.8662109,26.5155029 C14.2020263,26.579956 14.5473633,26.6151123 14.9014893,26.6151123 C15.4042969,26.6151123 15.8913574,26.5473633 16.354248,26.4210205 C13.8336182,25.9163818 11.9348145,23.6887208 11.9348145,21.0212402 C11.9348145,20.9963379 11.9348145,20.973999 11.9355469,20.9509277 C12.6778565,21.3636474 13.5267334,21.6119385 14.430542,21.6397705 C12.9514161,20.652832 11.979126,18.9656982 11.979126,17.0544433 C11.979126,16.0451661 12.2519531,15.0996094 12.7250977,14.2855224 C15.4416504,17.6187744 19.5014648,19.8109131 24.0798339,20.0412598 C23.9853516,19.6376953 23.9366455,19.2172852 23.9366455,18.7851563 C23.9366455,15.7441406 26.4038086,13.2769776 29.4459229,13.2769776 C31.0305176,13.2769776 32.4616699,13.9467773 33.466919,15.0175781 C34.7219239,14.7700195 35.9003906,14.3115234 36.9649658,13.680542 C36.5529786,14.9663086 35.6799317,16.0451661 34.5424805,16.727417 C35.6568604,16.5941162 36.7188721,16.2985839 37.7058105,15.8598633 C36.9686279,16.9647217 36.0336914,17.9351807 34.9581299,18.7126464 Z" fill="#1EA0F1" fill-rule="nonzero"></path></g></g></svg>